# xmcd
#
# Track frame offsets: 
#        150
#        8520
#        18370
#        29622
#        37125
#        46387
#        58662
#        72427
#        74510
#        90102
#        100922
#        110827
#        129742
#        136512
#        153367
#        167362
#        178607
#        190522
#
# Disc length: 2673 seconds
#
# Revision: 2
# Processed by: cddbd v1.5.2PL0 Copyright (c) Steve Scherf et al.
# Submitted via: ExactAudioCopy v0.99pb5
#
DISCID=e90a6f12
DTITLE=Pete Wernick and Friends - Dr. Banjo Steps Out
DYEAR=1900
DGENRE=
TTITLE0=Whiskey Before Breakfast
TTITLE1=Plane 45
TTITLE2=Wichita Lineman
TTITLE3=Cross-Eyed Fiddler
TTITLE4=Beatin' My Time
TTITLE5=Gnu Breakdown
TTITLE6=Life's Too Short
TTITLE7=It's A Gift
TTITLE8=Plain and Fancy
TTITLE9=Shady Grove
TTITLE10=Western Wind
TTITLE11=Lost In The Woods
TTITLE12=Sally Ann
TTITLE13=The Highest Place
TTITLE14=Red Clay of Georgia
TTITLE15=Whie Fences
TTITLE16=Blueberry Ripple
TTITLE17=Big Rock in the Road
EXTD=
EXTT0=
EXTT1=
EXTT2=
EXTT3=
EXTT4=
EXTT5=
EXTT6=
EXTT7=
EXTT8=
EXTT9=
EXTT10=
EXTT11=
EXTT12=
EXTT13=
EXTT14=
EXTT15=
EXTT16=
EXTT17=
PLAYORDER=
